<?xml version="1.0" encoding="UTF-8" standalone="no"?>
<!DOCTYPE svg PUBLIC "-//W3C//DTD SVG 1.1//EN" "http://www.w3.org/Graphics/SVG/1.1/DTD/svg11.dtd">
<svg width="100%" height="100%" viewBox="0 0 300 65" version="1.1" xmlns="http://www.w3.org/2000/svg" xmlns:xlink="http://www.w3.org/1999/xlink" xml:space="preserve" style="fill-rule:evenodd;clip-rule:evenodd;stroke-linejoin:round;stroke-miterlimit:1.41421;">
    <g>
        <g transform="matrix(1.07607,0,0,1.07916,-309.066,-443.252)">
            <path d="M378.549,457.439C378.549,455.774 377.262,454.458 375.596,454.458C373.931,454.458 372.63,455.774 372.63,457.439C372.63,459.104 373.931,460.42 375.596,460.42C377.262,460.42 378.549,459.104 378.549,457.439M371.916,457.439C371.916,455.368 373.553,453.786 375.596,453.786C377.626,453.786 379.263,455.368 379.263,457.439C379.263,459.51 377.626,461.092 375.596,461.092C373.553,461.092 371.916,459.51 371.916,457.439" style="fill:rgb(239,60,86);fill-rule:nonzero;"/>
        </g>
        <g transform="matrix(1.07607,0,0,1.07916,-309.066,-443.252)">
            <path d="M387.253,460.937L386.539,460.937L386.539,454.625L382.172,454.625L382.172,460.937L381.473,460.937L381.473,453.94L387.253,453.94L387.253,460.937Z" style="fill:rgb(239,60,86);fill-rule:nonzero;"/>
        </g>
        <g transform="matrix(1.07607,0,0,1.07916,-309.066,-443.252)">
            <path d="M390.207,457.117L395.833,457.117C395.679,455.41 394.475,454.458 393.104,454.458C391.508,454.458 390.347,455.564 390.207,457.117M396.561,457.467C396.561,457.579 396.547,457.691 396.547,457.803L390.207,457.803C390.375,459.384 391.579,460.42 393.174,460.42C394.322,460.42 395.189,459.888 395.595,459.146L396.211,459.51C395.637,460.462 394.546,461.091 393.16,461.091C391.005,461.091 389.479,459.552 389.479,457.439C389.479,455.381 390.963,453.786 393.104,453.786C395.231,453.786 396.561,455.549 396.561,457.467" style="fill:rgb(239,60,86);fill-rule:nonzero;"/>
        </g>
        <g transform="matrix(1.07607,0,0,1.07916,-309.066,-443.252)">
            <path d="M405.349,457.439C405.349,455.774 404.047,454.458 402.382,454.458C400.717,454.458 399.415,455.774 399.415,457.439C399.415,459.104 400.717,460.42 402.382,460.42C404.047,460.42 405.349,459.104 405.349,457.439M406.048,457.439C406.048,459.51 404.425,461.092 402.424,461.092C401.066,461.092 399.988,460.392 399.415,459.314L399.415,463.737L398.715,463.737L398.715,453.94L399.415,453.94L399.415,455.564C399.988,454.486 401.066,453.786 402.424,453.786C404.425,453.786 406.048,455.368 406.048,457.439" style="fill:rgb(239,60,86);fill-rule:nonzero;"/>
        </g>
        <g transform="matrix(1.07607,0,0,1.07916,-309.066,-443.252)">
            <path d="M414.45,457.439C414.45,455.774 413.163,454.458 411.497,454.458C409.832,454.458 408.531,455.774 408.531,457.439C408.531,459.104 409.832,460.42 411.497,460.42C413.163,460.42 414.45,459.104 414.45,457.439M415.164,453.94L415.164,460.938L414.45,460.938L414.45,459.356C413.863,460.406 412.785,461.092 411.441,461.092C409.454,461.092 407.817,459.51 407.817,457.439C407.817,455.368 409.454,453.786 411.441,453.786C412.785,453.786 413.863,454.472 414.45,455.522L414.45,453.94L415.164,453.94Z" style="fill:rgb(239,60,86);fill-rule:nonzero;"/>
        </g>
        <g transform="matrix(1.07607,0,0,1.07916,-309.066,-443.252)">
            <path d="M422.748,454.626L420.201,454.626L420.201,460.938L419.501,460.938L419.501,454.626L416.954,454.626L416.954,453.94L422.748,453.94L422.748,454.626Z" style="fill:rgb(239,60,86);fill-rule:nonzero;"/>
        </g>
        <g transform="matrix(1.07607,0,0,1.07916,-309.066,-443.252)">
            <path d="M430.381,457.439C430.381,455.774 429.094,454.458 427.428,454.458C425.763,454.458 424.462,455.774 424.462,457.439C424.462,459.104 425.763,460.42 427.428,460.42C429.094,460.42 430.381,459.104 430.381,457.439M423.748,457.439C423.748,455.368 425.385,453.786 427.428,453.786C429.458,453.786 431.095,455.368 431.095,457.439C431.095,459.51 429.458,461.092 427.428,461.092C425.385,461.092 423.748,459.51 423.748,457.439" style="fill:rgb(239,60,86);fill-rule:nonzero;"/>
        </g>
        <g transform="matrix(1.07607,0,0,1.07916,-309.066,-443.252)">
            <path d="M439.911,457.439C439.911,455.774 438.61,454.458 436.944,454.458C435.279,454.458 433.977,455.774 433.977,457.439C433.977,459.104 435.279,460.42 436.944,460.42C438.61,460.42 439.911,459.104 439.911,457.439M440.61,457.439C440.61,459.51 438.987,461.092 436.986,461.092C435.629,461.092 434.551,460.392 433.977,459.314L433.977,463.737L433.278,463.737L433.278,453.94L433.977,453.94L433.977,455.564C434.551,454.486 435.629,453.786 436.986,453.786C438.987,453.786 440.61,455.368 440.61,457.439" style="fill:rgb(239,60,86);fill-rule:nonzero;"/>
        </g>
        <g transform="matrix(1.07607,0,0,1.07916,-309.066,-443.252)">
            <path d="M455.116,460.923L454.403,460.923L454.403,454.989L451.785,459.118L451.688,459.118L449.057,454.961L449.057,460.923L448.357,460.923L448.357,453.926L449.183,453.926L451.73,457.942L454.277,453.926L455.116,453.926L455.116,460.923Z" style="fill:rgb(239,60,86);fill-rule:nonzero;"/>
        </g>
        <g transform="matrix(1.07607,0,0,1.07916,-309.066,-443.252)">
            <path d="M463.952,457.424C463.952,455.759 462.665,454.443 460.999,454.443C459.334,454.443 458.032,455.759 458.032,457.424C458.032,459.089 459.334,460.405 460.999,460.405C462.665,460.405 463.952,459.089 463.952,457.424M457.318,457.424C457.318,455.353 458.956,453.771 460.999,453.771C463.028,453.771 464.666,455.353 464.666,457.424C464.666,459.495 463.028,461.077 460.999,461.077C458.956,461.077 457.318,459.495 457.318,457.424" style="fill:rgb(239,60,86);fill-rule:nonzero;"/>
        </g>
        <g transform="matrix(1.07607,0,0,1.07916,-309.066,-443.252)">
            <path d="M472.676,457.83C472.676,456.333 471.612,455.241 470.059,455.241C468.701,455.241 467.33,456.165 467.218,457.648C467.218,459.257 468.394,460.391 469.989,460.391C471.57,460.391 472.676,459.314 472.676,457.83M466.462,457.494C466.462,455.311 466.855,454.135 469.079,453.044C470.605,452.316 471.836,452.134 472.032,450.945L472.592,451.266C472.354,452.61 470.885,452.946 469.457,453.604C468.086,454.219 467.512,454.849 467.288,456.081C467.988,454.989 469.177,454.555 470.143,454.555C471.99,454.555 473.39,455.913 473.39,457.83C473.39,459.705 471.962,461.091 469.989,461.091C468.002,461.091 466.462,459.663 466.462,457.494" style="fill:rgb(239,60,86);fill-rule:nonzero;"/>
        </g>
        <g transform="matrix(1.07607,0,0,1.07916,-309.066,-443.252)">
            <path d="M481.302,453.926L481.302,460.923L480.588,460.923L480.588,455.143L476.137,460.923L475.522,460.923L475.522,453.926L476.221,453.926L476.221,459.706L480.686,453.926L481.302,453.926Z" style="fill:rgb(239,60,86);fill-rule:nonzero;"/>
        </g>
        <g transform="matrix(1.07607,0,0,1.07916,-309.066,-443.252)">
            <path d="M489.662,460.923L488.963,460.923L488.963,454.611L485.436,454.611L485.436,457.984C485.436,460.433 484.4,461.021 483.085,460.923L483.085,460.265C484.162,460.363 484.736,459.789 484.736,457.984L484.736,453.926L489.662,453.926L489.662,460.923Z" style="fill:rgb(239,60,86);fill-rule:nonzero;"/>
        </g>
        <g transform="matrix(1.07607,0,0,1.07916,-309.066,-443.252)">
            <path d="M496.695,458.782C496.695,457.886 495.981,457.326 495.099,457.326L493.028,457.326L493.028,460.237L495.099,460.237C495.981,460.237 496.695,459.664 496.695,458.782M497.409,458.782C497.409,460.069 496.345,460.923 495.099,460.923L492.329,460.923L492.329,453.926L493.028,453.926L493.028,456.641L495.099,456.641C496.345,456.641 497.409,457.494 497.409,458.782" style="fill:rgb(239,60,86);fill-rule:nonzero;"/>
        </g>
        <g transform="matrix(1.07607,0,0,1.07916,-309.066,-443.252)">
            <path d="M505.143,453.926L505.143,460.923L504.429,460.923L504.429,457.761L500.063,457.761L500.063,460.923L499.364,460.923L499.364,453.926L500.063,453.926L500.063,457.089L504.429,457.089L504.429,453.926L505.143,453.926Z" style="fill:rgb(239,60,86);fill-rule:nonzero;"/>
        </g>
        <g transform="matrix(1.07607,0,0,1.07916,-309.066,-443.252)">
            <path d="M514.667,460.923L513.968,460.923L513.968,453.926L514.667,453.926L514.667,460.923ZM512.176,458.782C512.176,457.886 511.462,457.326 510.58,457.326L508.509,457.326L508.509,460.237L510.58,460.237C511.462,460.237 512.176,459.664 512.176,458.782M512.89,458.782C512.89,460.069 511.826,460.923 510.58,460.923L507.81,460.923L507.81,453.926L508.509,453.926L508.509,456.641L510.58,456.641C511.826,456.641 512.89,457.494 512.89,458.782" style="fill:rgb(239,60,86);fill-rule:nonzero;"/>
        </g>
        <g transform="matrix(1.07607,0,0,1.07916,-309.066,-443.252)">
            <path d="M522.109,460.923L519.744,457.872L517.378,460.923L516.525,460.923L519.324,457.326L516.693,453.926L517.546,453.926L519.744,456.767L521.955,453.926L522.794,453.926L520.177,457.312L522.962,460.923L522.109,460.923Z" style="fill:rgb(239,60,86);fill-rule:nonzero;"/>
        </g>
        <g transform="matrix(1.07607,0,0,1.07916,-309.066,-443.252)">
            <path d="M535.52,453.936L532.497,461.577C531.966,462.92 530.93,463.83 529.726,463.732L529.726,463.074C530.664,463.158 531.378,462.459 531.811,461.437L531.966,461.059L528.746,453.936L529.502,453.936L532.329,460.164L534.765,453.936L535.52,453.936Z" style="fill:rgb(239,60,86);fill-rule:nonzero;"/>
        </g>
        <g transform="matrix(1.07607,0,0,1.07916,-309.066,-443.252)">
            <path d="M536.563,457.435C536.563,455.364 538.131,453.782 540.244,453.782C541.615,453.782 542.791,454.482 543.295,455.574L542.721,455.909C542.315,455.028 541.363,454.454 540.244,454.454C538.55,454.454 537.277,455.77 537.277,457.435C537.277,459.1 538.55,460.416 540.244,460.416C541.378,460.416 542.301,459.828 542.763,458.96L543.35,459.31C542.791,460.388 541.615,461.088 540.244,461.088C538.131,461.088 536.563,459.506 536.563,457.435" style="fill:rgb(239,60,86);fill-rule:nonzero;"/>
        </g>
        <g transform="matrix(1.07607,0,0,1.07916,-309.066,-443.252)">
            <path d="M551.116,460.934L550.416,460.934L550.416,454.622L546.89,454.622L546.89,457.995C546.89,460.444 545.854,461.032 544.539,460.934L544.539,460.276C545.616,460.374 546.19,459.8 546.19,457.995L546.19,453.937L551.116,453.937L551.116,460.934Z" style="fill:rgb(239,60,86);fill-rule:nonzero;"/>
        </g>
        <g transform="matrix(1.07607,0,0,1.07916,-309.066,-443.252)">
            <path d="M559.672,453.936L556.649,461.577C556.118,462.92 555.082,463.83 553.878,463.732L553.878,463.074C554.816,463.158 555.53,462.459 555.963,461.437L556.118,461.059L552.899,453.936L553.654,453.936L556.481,460.164L558.917,453.936L559.672,453.936Z" style="fill:rgb(239,60,86);fill-rule:nonzero;"/>
        </g>
        <g transform="matrix(1.07607,0,0,1.07916,-309.066,-443.252)">
            <path d="M565.835,454.622L562.154,454.622L562.154,460.934L561.455,460.934L561.455,453.936L565.835,453.936L565.835,454.622Z" style="fill:rgb(239,60,86);fill-rule:nonzero;"/>
        </g>
        <g transform="matrix(1.07607,0,0,1.07916,-309.066,-443.252)">
            <path d="M317.334,425.795C315.753,425.795 314.286,426.287 313.073,427.124L313.073,427.12L290.6,442.104C290.566,442.127 290.532,442.149 290.498,442.173L290.407,442.233L290.407,442.241C288.481,443.606 287.218,445.847 287.218,448.382C287.218,450.93 288.494,453.182 290.437,454.545L290.437,454.556L313.103,469.67L313.103,469.662C314.309,470.486 315.766,470.969 317.334,470.969C321.485,470.969 324.863,467.591 324.863,463.44L324.863,463.439C324.862,455.426 313.478,454.412 313.478,448.382C313.478,442.351 324.863,441.337 324.863,433.324C324.863,429.173 321.485,425.795 317.334,425.795M317.334,429.457C319.466,429.457 321.201,431.192 321.201,433.324C321.201,435.473 319.685,436.769 316.466,439.02C313.503,441.093 309.816,443.673 309.816,448.382C309.816,453.09 313.503,455.67 316.466,457.743C319.684,459.995 321.201,461.291 321.201,463.439C321.201,463.443 321.201,463.446 321.201,463.45C321.196,465.577 319.463,467.307 317.334,467.307C316.558,467.307 315.808,467.075 315.166,466.637C315.098,466.591 315.029,466.547 314.958,466.505L292.678,451.65C292.633,451.615 292.587,451.581 292.54,451.548C291.501,450.819 290.88,449.635 290.88,448.382C290.88,447.137 291.495,445.958 292.525,445.228C292.554,445.207 292.584,445.186 292.613,445.164L292.632,445.151L314.982,430.248C315.039,430.213 315.096,430.177 315.151,430.138C315.798,429.693 316.553,429.457 317.334,429.457" style="fill:rgb(0,149,218);fill-rule:nonzero;"/>
        </g>
        <g transform="matrix(1.07607,0,0,1.07916,-309.066,-443.252)">
            <path d="M328.781,410.738C324.63,410.738 321.252,414.115 321.252,418.267C321.253,426.28 332.637,427.294 332.637,433.325C332.637,439.355 321.252,440.369 321.252,448.383C321.252,452.534 324.63,455.912 328.781,455.912C330.362,455.912 331.829,455.419 333.042,454.583L333.042,454.587L355.515,439.602C355.549,439.58 355.583,439.557 355.617,439.534L355.708,439.473L355.708,439.466C357.634,438.101 358.897,435.86 358.897,433.325C358.897,430.777 357.621,428.524 355.678,427.161L355.678,427.15L333.012,412.037L333.012,412.044C331.806,411.221 330.349,410.738 328.781,410.738M328.781,414.4C329.557,414.4 330.307,414.631 330.949,415.069C331.017,415.116 331.086,415.16 331.157,415.201L353.437,430.057C353.482,430.092 353.528,430.126 353.575,430.159C354.614,430.888 355.235,432.072 355.235,433.325C355.235,434.57 354.62,435.749 353.59,436.478C353.561,436.499 353.531,436.521 353.503,436.543L353.483,436.555L331.133,451.458C331.076,451.493 331.019,451.53 330.964,451.568C330.317,452.014 329.562,452.25 328.781,452.25C326.649,452.25 324.914,450.515 324.914,448.383C324.914,446.234 326.43,444.938 329.649,442.686C332.612,440.613 336.299,438.033 336.299,433.325C336.299,428.616 332.612,426.036 329.649,423.963C326.431,421.712 324.914,420.416 324.914,418.268C324.914,418.264 324.914,418.261 324.914,418.257C324.919,416.129 326.652,414.4 328.781,414.4" style="fill:rgb(239,60,86);fill-rule:nonzero;"/>
        </g>
        <g transform="matrix(1.07607,0,0,1.07916,-309.066,-443.252)">
            <path d="M370.719,438.079L374.239,436.039C374.877,437.518 375.974,438.512 377.989,438.512C379.927,438.512 380.412,437.747 380.412,437.059C380.412,435.962 379.392,435.529 376.713,434.79C374.061,434.05 371.459,432.775 371.459,429.358C371.459,425.916 374.366,423.927 377.453,423.927C380.386,423.927 382.682,425.329 383.983,427.956L380.54,429.97C379.927,428.695 379.086,427.905 377.453,427.905C376.177,427.905 375.54,428.542 375.54,429.256C375.54,430.072 375.974,430.633 378.754,431.475C381.458,432.291 384.494,433.234 384.494,437.008C384.494,440.451 381.738,442.49 377.861,442.49C374.111,442.49 371.713,440.705 370.719,438.079" style="fill:rgb(0,149,218);fill-rule:nonzero;"/>
        </g>
        <g transform="matrix(1.07607,0,0,1.07916,-309.066,-443.252)">
            <path d="M392.045,433.056L392.045,437.57C392.045,438.666 392.989,438.768 394.672,438.666L394.672,442.134C389.672,442.644 388.219,441.139 388.219,437.57L388.219,433.056L386.178,433.056L386.178,429.385L388.219,429.385L388.219,426.962L392.045,425.814L392.045,429.385L394.672,429.385L394.672,433.056L392.045,433.056Z" style="fill:rgb(0,149,218);fill-rule:nonzero;"/>
        </g>
        <g transform="matrix(1.07607,0,0,1.07916,-309.066,-443.252)">
            <path d="M405.768,429.129L405.768,433.464C404.187,433.209 401.942,433.846 401.942,436.371L401.942,442.134L398.116,442.134L398.116,429.384L401.942,429.384L401.942,431.654C402.452,429.945 404.161,429.129 405.768,429.129" style="fill:rgb(0,149,218);fill-rule:nonzero;"/>
        </g>
        <g transform="matrix(1.07607,0,0,1.07916,-309.066,-443.252)">
            <path d="M416.941,434.433C416.533,432.954 415.385,432.418 414.237,432.418C412.783,432.418 411.814,433.132 411.457,434.433L416.941,434.433ZM414.595,439.074C415.641,439.074 416.533,438.666 417.043,438.104L420.104,439.864C418.854,441.598 416.967,442.49 414.544,442.49C410.181,442.49 407.478,439.558 407.478,435.759C407.478,431.959 410.233,429.027 414.263,429.027C417.987,429.027 420.742,431.908 420.742,435.759C420.742,436.294 420.691,436.804 420.589,437.289L411.533,437.289C412.018,438.615 413.192,439.074 414.595,439.074" style="fill:rgb(0,149,218);fill-rule:nonzero;"/>
        </g>
        <g transform="matrix(1.07607,0,0,1.07916,-309.066,-443.252)">
            <path d="M432.476,435.759C432.476,433.847 431.201,432.649 429.441,432.649C427.681,432.649 426.405,433.847 426.405,435.759C426.405,437.671 427.681,438.87 429.441,438.87C431.201,438.87 432.476,437.671 432.476,435.759M436.302,429.385L436.302,442.134L432.476,442.134L432.476,440.935C431.634,441.905 430.385,442.491 428.675,442.491C425.333,442.491 422.579,439.559 422.579,435.759C422.579,431.96 425.333,429.028 428.675,429.028C430.385,429.028 431.634,429.614 432.476,430.583L432.476,429.385L436.302,429.385Z" style="fill:rgb(0,149,218);fill-rule:nonzero;"/>
        </g>
        <g transform="matrix(1.07607,0,0,1.07916,-309.066,-443.252)">
            <path d="M458.802,434.305L458.802,442.133L454.976,442.133L454.976,434.637C454.976,433.362 454.363,432.545 453.139,432.545C451.864,432.545 451.149,433.438 451.149,434.942L451.149,442.133L447.323,442.133L447.323,434.637C447.323,433.362 446.711,432.545 445.486,432.545C444.211,432.545 443.497,433.438 443.497,434.942L443.497,442.133L439.671,442.133L439.671,429.384L443.497,429.384L443.497,430.556C444.083,429.69 445.206,429.027 446.915,429.027C448.42,429.027 449.543,429.638 450.257,430.709C450.971,429.69 452.144,429.027 453.955,429.027C456.889,429.027 458.802,431.118 458.802,434.305" style="fill:rgb(0,149,218);fill-rule:nonzero;"/>
        </g>
        <g transform="matrix(1.07607,0,0,1.07916,-309.066,-443.252)">
            <path d="M480.019,428.233L475.427,428.233L475.427,442.156L471.346,442.156L471.346,428.233L466.755,428.233L466.755,424.306L480.019,424.306L480.019,428.233Z" style="fill:rgb(0,149,218);fill-rule:nonzero;"/>
        </g>
        <g transform="matrix(1.07607,0,0,1.07916,-309.066,-443.252)">
            <path d="M488.845,434.455C488.437,432.976 487.289,432.441 486.141,432.441C484.687,432.441 483.718,433.155 483.361,434.455L488.845,434.455ZM486.498,439.096C487.544,439.096 488.437,438.688 488.947,438.127L492.008,439.887C490.758,441.62 488.871,442.513 486.447,442.513C482.085,442.513 479.382,439.58 479.382,435.781C479.382,431.981 482.136,429.049 486.167,429.049C489.891,429.049 492.645,431.931 492.645,435.781C492.645,436.316 492.595,436.827 492.492,437.311L483.437,437.311C483.922,438.637 485.095,439.096 486.498,439.096" style="fill:rgb(0,149,218);fill-rule:nonzero;"/>
        </g>
        <g transform="matrix(1.07607,0,0,1.07916,-309.066,-443.252)">
            <rect x="495.325" y="423.541" width="3.826" height="18.615" style="fill:rgb(0,149,218);fill-rule:nonzero;"/>
        </g>
        <g transform="matrix(1.07607,0,0,1.07916,-309.066,-443.252)">
            <path d="M511.293,434.455C510.885,432.976 509.737,432.441 508.589,432.441C507.135,432.441 506.166,433.155 505.809,434.455L511.293,434.455ZM508.946,439.096C509.992,439.096 510.885,438.688 511.395,438.127L514.456,439.887C513.206,441.62 511.318,442.513 508.896,442.513C504.533,442.513 501.83,439.58 501.83,435.781C501.83,431.981 504.585,429.049 508.614,429.049C512.339,429.049 515.094,431.931 515.094,435.781C515.094,436.316 515.043,436.827 514.941,437.311L505.885,437.311C506.37,438.637 507.544,439.096 508.946,439.096" style="fill:rgb(0,149,218);fill-rule:nonzero;"/>
        </g>
        <g transform="matrix(1.07607,0,0,1.07916,-309.066,-443.252)">
            <path d="M516.88,435.781C516.88,431.981 519.763,429.049 523.64,429.049C526.114,429.049 528.308,430.349 529.404,432.313L526.063,434.251C525.629,433.359 524.711,432.823 523.589,432.823C521.931,432.823 520.706,434.021 520.706,435.781C520.706,437.541 521.931,438.739 523.589,438.739C524.711,438.739 525.655,438.203 526.063,437.311L529.404,439.223C528.308,441.212 526.139,442.513 523.64,442.513C519.763,442.513 516.88,439.58 516.88,435.781" style="fill:rgb(0,149,218);fill-rule:nonzero;"/>
        </g>
        <g transform="matrix(1.07607,0,0,1.07916,-309.066,-443.252)">
            <path d="M540.373,435.781C540.373,433.97 539.098,432.772 537.44,432.772C535.782,432.772 534.506,433.97 534.506,435.781C534.506,437.591 535.782,438.79 537.44,438.79C539.098,438.79 540.373,437.591 540.373,435.781M530.68,435.781C530.68,431.981 533.69,429.049 537.44,429.049C541.19,429.049 544.199,431.981 544.199,435.781C544.199,439.58 541.19,442.513 537.44,442.513C533.69,442.513 530.68,439.58 530.68,435.781" style="fill:rgb(0,149,218);fill-rule:nonzero;"/>
        </g>
        <g transform="matrix(1.07607,0,0,1.07916,-309.066,-443.252)">
            <path d="M566.01,434.327L566.01,442.156L562.184,442.156L562.184,434.659C562.184,433.384 561.572,432.568 560.347,432.568C559.072,432.568 558.357,433.46 558.357,434.964L558.357,442.156L554.531,442.156L554.531,434.659C554.531,433.384 553.919,432.568 552.694,432.568C551.419,432.568 550.705,433.46 550.705,434.964L550.705,442.156L546.878,442.156L546.878,429.406L550.705,429.406L550.705,430.579C551.292,429.712 552.414,429.049 554.123,429.049C555.628,429.049 556.75,429.661 557.464,430.732C558.179,429.712 559.352,429.049 561.164,429.049C564.097,429.049 566.01,431.14 566.01,434.327" style="fill:rgb(0,149,218);fill-rule:nonzero;"/>
        </g>
    </g>
</svg>
